<svg width="32px" height="32px" viewBox="0 0 24.00 24.00" fill="none" xmlns="http://www.w3.org/2000/svg" stroke="#000000" stroke-width="0.00024000000000000003"><g id="SVGRepo_bgCarrier" stroke-width="0"></g><g id="SVGRepo_tracerCarrier" stroke-linecap="round" stroke-linejoin="round"></g><g id="SVGRepo_iconCarrier"><path fill-rule="evenodd" clip-rule="evenodd" d="M22 12c0 5.523-4.477 10-10 10S2 17.523 2 12 6.477 2 12 2s10 4.477 10 10ZM5 12a2 2 0 1 1 4 0 2 2 0 0 1-4 0Zm5 0a2 2 0 1 1 4 0 2 2 0 0 1-4 0Zm7-2a2 2 0 1 0 0 4 2 2 0 0 0 0-4Z" fill="#292929"></path></g></svg>