<svg width="50" height="50" viewBox="0 0 50 50" fill="#FAFAFA" xmlns="http://www.w3.org/2000/svg">
<path d="M33.2316 3.9097V10.2528C39.0074 13.2352 42.9669 19.2549 42.9669 26.2084C42.9669 36.1278 34.9252 44.1728 25.0058 44.1728C15.0831 44.1728 7.03812 36.1278 7.03812 26.2084C7.03812 19.8321 10.3755 14.2405 15.38 11.054V4.46041C7.04144 8.15778 1.21255 16.4964 1.21255 26.2101C1.21255 39.3491 11.8618 50 24.9992 50C38.1432 50 48.7891 39.3491 48.7891 26.2101C48.7874 15.9639 42.3 7.26371 33.2316 3.9097Z" fill="#FAFAFA"/>
<path d="M24.5414 29.2804C27.1556 29.2804 27.421 27.7361 27.421 25.8368V3.45022C27.421 1.54596 27.1556 0 24.5414 0C21.9371 0 21.6684 1.54596 21.6684 3.45022V25.8368C21.6667 27.7378 21.9371 29.2804 24.5414 29.2804Z" fill="#FAFAFA"/>
</svg>
